<?xml version="1.0" encoding="UTF-8"?>
<svg width="72px" height="72px" viewBox="0 0 72 72" version="1.1" xmlns="http://www.w3.org/2000/svg" xmlns:xlink="http://www.w3.org/1999/xlink">
    <!-- Generator: Sketch 54.1 (76490) - https://sketchapp.com -->
    <title>Icon Big/engineering</title>
    <desc>Created with Sketch.</desc>
    <g id="Icon-Big/engineering" stroke="none" stroke-width="1" fill="none" fill-rule="evenodd">
        <path d="M32.324219,2 L30.050781,7.675781 C26.46875,8.425781 23.136719,9.828125 20.171875,11.765625 L14.558594,9.359375 L9.359375,14.558594 L11.765625,20.171875 C9.824219,23.136719 8.425781,26.46875 7.675781,30.050781 L2,32.324219 L2,39.675781 L7.675781,41.949219 C8.425781,45.53125 9.828125,48.863281 11.765625,51.828125 L9.359375,57.441406 L14.558594,62.640625 L20.171875,60.234375 C23.136719,62.175781 26.46875,63.574219 30.050781,64.324219 L32.324219,70 L39.675781,70 L41.949219,64.324219 C45.53125,63.574219 48.863281,62.171875 51.828125,60.234375 L57.441406,62.640625 L62.640625,57.441406 L60.234375,51.828125 C62.175781,48.863281 63.574219,45.53125 64.324219,41.949219 L70,39.675781 L70,32.324219 L64.324219,30.050781 C63.574219,26.46875 62.171875,23.136719 60.234375,20.171875 L62.640625,14.558594 L57.441406,9.359375 L51.828125,11.765625 C48.863281,9.824219 45.53125,8.425781 41.949219,7.675781 L39.675781,2 L32.324219,2 Z M33.675781,4 L38.324219,4 L40.46875,9.371094 L41.011719,9.46875 C44.738281,10.171875 48.199219,11.632813 51.21875,13.699219 L51.671875,14.003906 L56.984375,11.730469 L60.269531,15.015625 L57.992188,20.328125 L58.300781,20.78125 C60.367188,23.800781 61.828125,27.257813 62.527344,30.988281 L62.628906,31.53125 L68,33.675781 L68,38.324219 L62.628906,40.46875 L62.53125,41.011719 C61.828125,44.738281 60.367188,48.199219 58.300781,51.21875 L57.996094,51.671875 L60.269531,56.984375 L56.984375,60.269531 L51.671875,57.992188 L51.21875,58.300781 C48.199219,60.367188 44.742188,61.828125 41.011719,62.527344 L40.46875,62.628906 L38.324219,68 L33.675781,68 L31.53125,62.628906 L30.988281,62.53125 C27.261719,61.828125 23.800781,60.367188 20.78125,58.300781 L20.328125,57.996094 L15.015625,60.269531 L11.730469,56.984375 L14.007813,51.671875 L13.699219,51.21875 C11.632813,48.199219 10.171875,44.742188 9.472656,41.011719 L9.371094,40.46875 L4,38.324219 L4,33.675781 L9.371094,31.53125 L9.46875,30.988281 C10.171875,27.261719 11.632813,23.800781 13.699219,20.78125 L14.003906,20.328125 L11.730469,15.015625 L15.015625,11.730469 L20.328125,14.007813 L20.78125,13.699219 C23.800781,11.632813 27.257813,10.171875 30.988281,9.472656 L31.53125,9.371094 L33.675781,4 Z M36,10 C35.449219,10 35,10.449219 35,11 C35,11.550781 35.449219,12 36,12 C36.550781,12 37,11.550781 37,11 C37,10.449219 36.550781,10 36,10 Z M38,14.082031 L38,22.121094 L38.800781,22.28125 C45.1875,23.578125 50,29.214844 50,36 C50,37.546875 49.738281,39.03125 49.269531,40.433594 L49.015625,41.203125 L55.988281,45.234375 L56.421875,44.160156 C57.429688,41.636719 58,38.886719 58,36 C58,24.929688 49.796875,15.777344 39.140625,14.25 L38,14.082031 Z M34,14.085938 L32.859375,14.25 C22.203125,15.777344 14,24.929688 14,36 C14,38.886719 14.570313,41.636719 15.578125,44.160156 L16.011719,45.230469 L22.984375,41.203125 L22.730469,40.429688 C22.261719,39.03125 22,37.546875 22,36 C22,29.214844 26.8125,23.578125 33.199219,22.28125 L34,22.121094 L34,14.085938 Z M32,16.5 L32,20.636719 C25.125,22.429688 20,28.574219 20,36 C20,37.480469 20.316406,38.867188 20.691406,40.21875 L17.105469,42.292969 C16.4375,40.300781 16,38.210938 16,36 C16,26.324219 22.886719,18.363281 32,16.5 Z M40,16.5 C49.113281,18.363281 56,26.324219 56,36 C56,38.210938 55.5625,40.304688 54.894531,42.292969 L51.308594,40.21875 C51.683594,38.867188 52,37.480469 52,36 C52,28.574219 46.875,22.429688 40,20.632813 L40,16.5 Z M18.335938,17.324219 C18.066406,17.316406 17.804688,17.421875 17.613281,17.613281 C17.222656,18.003906 17.222656,18.640625 17.613281,19.03125 C17.800781,19.21875 18.054688,19.324219 18.320313,19.324219 C18.585938,19.324219 18.839844,19.21875 19.03125,19.03125 C19.417969,18.640625 19.417969,18.003906 19.03125,17.613281 C18.84375,17.429688 18.597656,17.324219 18.335938,17.324219 Z M53.691406,17.324219 C53.421875,17.320313 53.160156,17.425781 52.96875,17.613281 C52.582031,18.003906 52.582031,18.640625 52.96875,19.03125 C53.359375,19.417969 53.996094,19.417969 54.386719,19.03125 C54.773438,18.640625 54.773438,18.003906 54.386719,17.613281 C54.199219,17.429688 53.953125,17.324219 53.691406,17.324219 Z M36,25 C35.449219,25 35,25.449219 35,26 C35,26.550781 35.449219,27 36,27 C36.550781,27 37,26.550781 37,26 C37,25.449219 36.550781,25 36,25 Z M30.976563,26.339844 C30.808594,26.34375 30.644531,26.390625 30.5,26.472656 C30.269531,26.605469 30.101563,26.824219 30.03125,27.082031 C29.964844,27.335938 30,27.609375 30.132813,27.839844 C30.265625,28.070313 30.484375,28.238281 30.742188,28.304688 C30.996094,28.375 31.269531,28.339844 31.5,28.203125 C31.976563,27.929688 32.140625,27.316406 31.863281,26.839844 C31.683594,26.523438 31.34375,26.332031 30.976563,26.339844 Z M40.953125,26.34375 C40.613281,26.359375 40.304688,26.546875 40.132813,26.839844 C40,27.070313 39.964844,27.34375 40.03125,27.597656 C40.101563,27.855469 40.269531,28.074219 40.5,28.207031 C40.976563,28.484375 41.589844,28.316406 41.863281,27.839844 C42.140625,27.363281 41.976563,26.75 41.5,26.472656 C41.332031,26.378906 41.144531,26.332031 40.953125,26.34375 Z M44.636719,30 C44.46875,30.003906 44.304688,30.050781 44.15625,30.132813 C43.929688,30.265625 43.761719,30.484375 43.691406,30.742188 C43.625,30.996094 43.660156,31.269531 43.792969,31.5 C44.070313,31.976563 44.679688,32.140625 45.15625,31.863281 C45.636719,31.589844 45.800781,30.976563 45.527344,30.5 C45.34375,30.183594 45,29.992188 44.636719,30 Z M27.292969,30 C26.953125,30.019531 26.644531,30.207031 26.472656,30.5 C26.339844,30.730469 26.304688,31.003906 26.371094,31.257813 C26.441406,31.515625 26.609375,31.734375 26.839844,31.867188 C27.316406,32.144531 27.929688,31.976563 28.203125,31.5 C28.480469,31.023438 28.316406,30.410156 27.839844,30.136719 C27.671875,30.039063 27.484375,29.992188 27.292969,30 Z M36,31 C33.25,31 31,33.25 31,36 C31,38.75 33.25,41 36,41 C38.75,41 41,38.75 41,36 C41,33.25 38.75,31 36,31 Z M36,33 C37.667969,33 39,34.332031 39,36 C39,37.667969 37.667969,39 36,39 C34.332031,39 33,37.667969 33,36 C33,34.332031 34.332031,33 36,33 Z M11,35 C10.449219,35 10,35.449219 10,36 C10,36.550781 10.449219,37 11,37 C11.550781,37 12,36.550781 12,36 C12,35.449219 11.550781,35 11,35 Z M26,35 C25.449219,35 25,35.449219 25,36 C25,36.550781 25.449219,37 26,37 C26.550781,37 27,36.550781 27,36 C27,35.449219 26.550781,35 26,35 Z M46,35 C45.449219,35 45,35.449219 45,36 C45,36.550781 45.449219,37 46,37 C46.550781,37 47,36.550781 47,36 C47,35.449219 46.550781,35 46,35 Z M61,35 C60.449219,35 60,35.449219 60,36 C60,36.550781 60.449219,37 61,37 C61.550781,37 62,36.550781 62,36 C62,35.449219 61.550781,35 61,35 Z M27.316406,40 C27.148438,40.003906 26.984375,40.046875 26.839844,40.132813 C26.363281,40.410156 26.195313,41.019531 26.472656,41.5 C26.605469,41.726563 26.824219,41.894531 27.082031,41.964844 C27.335938,42.035156 27.609375,42 27.839844,41.863281 C28.070313,41.734375 28.238281,41.515625 28.304688,41.257813 C28.375,41 28.339844,40.726563 28.203125,40.5 C28.023438,40.179688 27.683594,39.988281 27.316406,40 Z M44.609375,40 C44.269531,40.019531 43.960938,40.207031 43.792969,40.5 C43.515625,40.980469 43.679688,41.589844 44.15625,41.867188 C44.636719,42.144531 45.246094,41.980469 45.523438,41.5 C45.65625,41.273438 45.691406,41 45.625,40.742188 C45.554688,40.484375 45.386719,40.265625 45.15625,40.136719 C44.992188,40.039063 44.800781,39.992188 44.609375,40 Z M40.972656,43.65625 C40.808594,43.664063 40.644531,43.707031 40.5,43.792969 C40.019531,44.070313 39.855469,44.679688 40.132813,45.15625 C40.410156,45.636719 41.019531,45.800781 41.5,45.527344 C41.726563,45.394531 41.894531,45.175781 41.964844,44.917969 C42.035156,44.660156 42,44.386719 41.863281,44.15625 C41.683594,43.839844 41.339844,43.648438 40.972656,43.65625 Z M30.953125,43.660156 C30.613281,43.679688 30.304688,43.867188 30.132813,44.160156 C30,44.390625 29.964844,44.664063 30.03125,44.917969 C30.101563,45.175781 30.269531,45.394531 30.5,45.527344 C30.726563,45.660156 31,45.695313 31.257813,45.628906 C31.515625,45.558594 31.734375,45.390625 31.863281,45.160156 C32.140625,44.683594 31.976563,44.070313 31.5,43.796875 C31.332031,43.699219 31.140625,43.652344 30.953125,43.660156 Z M24.992188,44.664063 L18.015625,48.691406 L18.730469,49.601563 C22.753906,54.707031 28.996094,58 36,58 C43.003906,58 49.246094,54.707031 53.269531,49.601563 L53.984375,48.691406 L47.007813,44.664063 L46.464844,45.277344 C43.898438,48.171875 40.175781,50 36,50 C31.824219,50 28.101563,48.171875 25.535156,45.277344 L24.992188,44.664063 Z M36,45 C35.449219,45 35,45.449219 35,46 C35,46.550781 35.449219,47 36,47 C36.550781,47 37,46.550781 37,46 C37,45.449219 36.550781,45 36,45 Z M24.65625,47.167969 C27.554688,50.113281 31.542969,52 36,52 C40.457031,52 44.445313,50.113281 47.34375,47.167969 L50.875,49.203125 C47.210938,53.332031 41.953125,56 36,56 C30.046875,56 24.789063,53.332031 21.125,49.203125 L24.65625,47.167969 Z M18.335938,52.675781 C18.066406,52.675781 17.804688,52.78125 17.613281,52.96875 C17.226563,53.359375 17.226563,53.996094 17.613281,54.386719 C18.003906,54.773438 18.640625,54.773438 19.03125,54.386719 C19.417969,53.996094 19.417969,53.359375 19.03125,52.96875 C18.84375,52.785156 18.597656,52.679688 18.335938,52.675781 Z M53.691406,52.675781 C53.421875,52.675781 53.160156,52.78125 52.96875,52.96875 C52.582031,53.359375 52.582031,53.996094 52.96875,54.386719 C53.359375,54.773438 53.996094,54.773438 54.386719,54.386719 C54.773438,53.996094 54.773438,53.359375 54.386719,52.96875 C54.199219,52.785156 53.953125,52.679688 53.691406,52.675781 Z M36,60 C35.449219,60 35,60.449219 35,61 C35,61.550781 35.449219,62 36,62 C36.550781,62 37,61.550781 37,61 C37,60.449219 36.550781,60 36,60 Z" id="icon" fill="#FFFFFF"></path>
    </g>
</svg>