<?xml version="1.0" encoding="utf-8"?>
<!-- Generator: Adobe Illustrator 27.3.1, SVG Export Plug-In . SVG Version: 6.00 Build 0)  -->
<svg version="1.1" id="Layer_1" xmlns="http://www.w3.org/2000/svg" xmlns:xlink="http://www.w3.org/1999/xlink" x="0px" y="0px"
	 viewBox="0 0 32 32" style="enable-background:new 0 0 32 32;" xml:space="preserve">
<style type="text/css">
	.st0{fill:#FFFFFF;}
</style>
<path class="st0" d="M28.8,0.7H3.3c-0.3,0-0.7,0-1,0.1C2.1,1,1.8,1.2,1.5,1.4C1.3,1.6,1.1,1.9,1,2.2C0.8,2.5,0.7,2.8,0.7,3.1v25.6
	c0,0.7,0.3,1.3,0.8,1.8C2,31,2.7,31.3,3.3,31.3h25.5c0.7,0,1.3-0.3,1.8-0.8c0.5-0.5,0.7-1.1,0.7-1.8V3.1c0-0.3-0.1-0.6-0.2-0.9
	c-0.1-0.3-0.3-0.6-0.5-0.8c-0.2-0.2-0.5-0.4-0.8-0.5C29.5,0.8,29.2,0.7,28.8,0.7z M10.3,26.2H5.8V12.6h4.4V26.2z M8.2,10.5
	c-0.3,0-0.6,0-0.9-0.2C7,10.2,6.7,10.1,6.5,9.9C6.3,9.6,6.1,9.4,6,9.1C5.9,8.8,5.8,8.5,5.8,8.2c0-0.3,0-0.6,0.2-0.9
	C6.1,7,6.3,6.7,6.5,6.5C6.7,6.3,7,6.1,7.3,6c0.3-0.1,0.6-0.2,0.9-0.1c0.3,0,0.6,0,0.9,0.2c0.3,0.1,0.6,0.3,0.8,0.5
	c0.2,0.2,0.4,0.5,0.5,0.8c0.1,0.3,0.2,0.6,0.1,0.9c0,0.3,0,0.6-0.2,0.9c-0.1,0.3-0.3,0.6-0.5,0.8c-0.2,0.2-0.5,0.4-0.8,0.5
	C8.8,10.5,8.5,10.5,8.2,10.5z M26.2,26.2h-4.5v-7.4c0-1.8-0.6-3-2.2-3c-0.5,0-1,0.2-1.4,0.4c-0.4,0.3-0.7,0.7-0.9,1.2
	c-0.1,0.3-0.2,0.7-0.2,1.1v7.8h-4.4V12.6h4.4v1.9c0.4-0.7,1-1.3,1.7-1.7c0.7-0.4,1.5-0.6,2.3-0.6c2.9,0,5.1,1.9,5.1,6V26.2z"/>
</svg>
